<mxfile host="app.diagrams.net" agent="Mozilla/5.0 (Windows NT 10.0; Win64; x64) AppleWebKit/537.36 (KHTML, like Gecko) Chrome/134.0.0.0 Safari/537.36" version="26.1.1">
  <diagram name="Seite-1" id="MHqBXCXjRd9fJwDm4RIQ">
    <mxGraphModel dx="3303" dy="1538" grid="1" gridSize="10" guides="1" tooltips="1" connect="1" arrows="1" fold="1" page="1" pageScale="1" pageWidth="827" pageHeight="1169" math="0" shadow="0">
      <root>
        <mxCell id="0" />
        <mxCell id="1" parent="0" />
        <mxCell id="FEtOOQ8i8liFEY_be7Ls-3" value="" style="edgeStyle=orthogonalEdgeStyle;rounded=0;orthogonalLoop=1;jettySize=auto;html=1;" parent="1" source="FEtOOQ8i8liFEY_be7Ls-1" target="FEtOOQ8i8liFEY_be7Ls-2" edge="1">
          <mxGeometry relative="1" as="geometry" />
        </mxCell>
        <mxCell id="FEtOOQ8i8liFEY_be7Ls-1" value="SiteWalk aufnehmen" style="rounded=0;whiteSpace=wrap;html=1;" parent="1" vertex="1">
          <mxGeometry x="10" y="710" width="120" height="60" as="geometry" />
        </mxCell>
        <mxCell id="FEtOOQ8i8liFEY_be7Ls-35" value="" style="edgeStyle=orthogonalEdgeStyle;rounded=0;orthogonalLoop=1;jettySize=auto;html=1;" parent="1" source="FEtOOQ8i8liFEY_be7Ls-2" target="FEtOOQ8i8liFEY_be7Ls-34" edge="1">
          <mxGeometry relative="1" as="geometry" />
        </mxCell>
        <mxCell id="FEtOOQ8i8liFEY_be7Ls-2" value="SiteWalk verarbeiten" style="whiteSpace=wrap;html=1;rounded=0;" parent="1" vertex="1">
          <mxGeometry x="260" y="710" width="120" height="60" as="geometry" />
        </mxCell>
        <mxCell id="FEtOOQ8i8liFEY_be7Ls-8" value="" style="edgeStyle=orthogonalEdgeStyle;rounded=0;orthogonalLoop=1;jettySize=auto;html=1;" parent="1" source="FEtOOQ8i8liFEY_be7Ls-6" edge="1">
          <mxGeometry relative="1" as="geometry">
            <mxPoint x="65" y="75" as="targetPoint" />
          </mxGeometry>
        </mxCell>
        <mxCell id="FEtOOQ8i8liFEY_be7Ls-6" value="DB mit Dalux - Projekt verbinden" style="rounded=0;whiteSpace=wrap;html=1;" parent="1" vertex="1">
          <mxGeometry x="-135" y="45" width="120" height="60" as="geometry" />
        </mxCell>
        <mxCell id="FEtOOQ8i8liFEY_be7Ls-13" value="" style="edgeStyle=orthogonalEdgeStyle;rounded=0;orthogonalLoop=1;jettySize=auto;html=1;" parent="1" source="FEtOOQ8i8liFEY_be7Ls-11" target="FEtOOQ8i8liFEY_be7Ls-12" edge="1">
          <mxGeometry relative="1" as="geometry" />
        </mxCell>
        <mxCell id="FEtOOQ8i8liFEY_be7Ls-19" style="edgeStyle=orthogonalEdgeStyle;rounded=0;orthogonalLoop=1;jettySize=auto;html=1;entryX=0.5;entryY=1;entryDx=0;entryDy=0;exitX=0.5;exitY=1;exitDx=0;exitDy=0;" parent="1" source="FEtOOQ8i8liFEY_be7Ls-11" target="FEtOOQ8i8liFEY_be7Ls-6" edge="1">
          <mxGeometry relative="1" as="geometry">
            <Array as="points">
              <mxPoint x="120" y="170" />
              <mxPoint x="-75" y="170" />
            </Array>
          </mxGeometry>
        </mxCell>
        <mxCell id="FEtOOQ8i8liFEY_be7Ls-11" value="Verbindung erfolgreich?" style="rhombus;whiteSpace=wrap;html=1;" parent="1" vertex="1">
          <mxGeometry x="65" y="30" width="110" height="90" as="geometry" />
        </mxCell>
        <mxCell id="geXtdiIoarMpO1agwRRF-78" style="edgeStyle=orthogonalEdgeStyle;rounded=0;orthogonalLoop=1;jettySize=auto;html=1;entryX=0;entryY=0.5;entryDx=0;entryDy=0;" edge="1" parent="1" source="FEtOOQ8i8liFEY_be7Ls-12" target="FEtOOQ8i8liFEY_be7Ls-30">
          <mxGeometry relative="1" as="geometry" />
        </mxCell>
        <mxCell id="FEtOOQ8i8liFEY_be7Ls-12" value="Location für Building wählen&amp;nbsp;" style="whiteSpace=wrap;html=1;" parent="1" vertex="1">
          <mxGeometry x="235" y="45" width="120" height="60" as="geometry" />
        </mxCell>
        <mxCell id="FEtOOQ8i8liFEY_be7Ls-16" value="ja" style="text;html=1;align=center;verticalAlign=middle;whiteSpace=wrap;rounded=0;" parent="1" vertex="1">
          <mxGeometry x="175" y="45" width="60" height="30" as="geometry" />
        </mxCell>
        <mxCell id="FEtOOQ8i8liFEY_be7Ls-20" value="nein" style="text;html=1;align=center;verticalAlign=middle;whiteSpace=wrap;rounded=0;" parent="1" vertex="1">
          <mxGeometry x="55" y="130" width="60" height="30" as="geometry" />
        </mxCell>
        <mxCell id="FEtOOQ8i8liFEY_be7Ls-24" value="" style="edgeStyle=orthogonalEdgeStyle;rounded=0;orthogonalLoop=1;jettySize=auto;html=1;" parent="1" source="FEtOOQ8i8liFEY_be7Ls-21" target="FEtOOQ8i8liFEY_be7Ls-23" edge="1">
          <mxGeometry relative="1" as="geometry" />
        </mxCell>
        <mxCell id="FEtOOQ8i8liFEY_be7Ls-21" value="Perimeter für GIS und BIM Daten angeben" style="whiteSpace=wrap;html=1;" parent="1" vertex="1">
          <mxGeometry x="610" y="45" width="120" height="60" as="geometry" />
        </mxCell>
        <mxCell id="FEtOOQ8i8liFEY_be7Ls-26" value="" style="edgeStyle=orthogonalEdgeStyle;rounded=0;orthogonalLoop=1;jettySize=auto;html=1;" parent="1" source="FEtOOQ8i8liFEY_be7Ls-23" target="FEtOOQ8i8liFEY_be7Ls-25" edge="1">
          <mxGeometry relative="1" as="geometry" />
        </mxCell>
        <mxCell id="FEtOOQ8i8liFEY_be7Ls-27" style="edgeStyle=orthogonalEdgeStyle;rounded=0;orthogonalLoop=1;jettySize=auto;html=1;entryX=1;entryY=0.5;entryDx=0;entryDy=0;exitX=1;exitY=0.5;exitDx=0;exitDy=0;" parent="1" source="FEtOOQ8i8liFEY_be7Ls-23" target="FEtOOQ8i8liFEY_be7Ls-21" edge="1">
          <mxGeometry relative="1" as="geometry">
            <Array as="points">
              <mxPoint x="760" y="215" />
              <mxPoint x="760" y="75" />
            </Array>
          </mxGeometry>
        </mxCell>
        <mxCell id="FEtOOQ8i8liFEY_be7Ls-23" value="angegeben?" style="rhombus;whiteSpace=wrap;html=1;" parent="1" vertex="1">
          <mxGeometry x="630" y="175" width="80" height="80" as="geometry" />
        </mxCell>
        <mxCell id="FEtOOQ8i8liFEY_be7Ls-29" value="" style="edgeStyle=orthogonalEdgeStyle;rounded=0;orthogonalLoop=1;jettySize=auto;html=1;" parent="1" source="FEtOOQ8i8liFEY_be7Ls-25" target="FEtOOQ8i8liFEY_be7Ls-28" edge="1">
          <mxGeometry relative="1" as="geometry" />
        </mxCell>
        <mxCell id="FEtOOQ8i8liFEY_be7Ls-25" value="IFC einladen" style="whiteSpace=wrap;html=1;" parent="1" vertex="1">
          <mxGeometry x="610" y="300" width="120" height="60" as="geometry" />
        </mxCell>
        <mxCell id="FEtOOQ8i8liFEY_be7Ls-32" value="" style="edgeStyle=orthogonalEdgeStyle;rounded=0;orthogonalLoop=1;jettySize=auto;html=1;" parent="1" source="FEtOOQ8i8liFEY_be7Ls-28" target="FEtOOQ8i8liFEY_be7Ls-33" edge="1">
          <mxGeometry relative="1" as="geometry">
            <mxPoint x="670" y="617.5" as="targetPoint" />
          </mxGeometry>
        </mxCell>
        <mxCell id="FEtOOQ8i8liFEY_be7Ls-28" value="Ebenen bestimmen" style="whiteSpace=wrap;html=1;" parent="1" vertex="1">
          <mxGeometry x="610" y="390" width="120" height="55" as="geometry" />
        </mxCell>
        <mxCell id="geXtdiIoarMpO1agwRRF-79" style="edgeStyle=orthogonalEdgeStyle;rounded=0;orthogonalLoop=1;jettySize=auto;html=1;exitX=1;exitY=0.5;exitDx=0;exitDy=0;entryX=0;entryY=0.5;entryDx=0;entryDy=0;" edge="1" parent="1" source="FEtOOQ8i8liFEY_be7Ls-30" target="FEtOOQ8i8liFEY_be7Ls-21">
          <mxGeometry relative="1" as="geometry" />
        </mxCell>
        <mxCell id="FEtOOQ8i8liFEY_be7Ls-30" value="Koordinatensystem wählen mit EPSG" style="rounded=0;whiteSpace=wrap;html=1;" parent="1" vertex="1">
          <mxGeometry x="430" y="45" width="120" height="60" as="geometry" />
        </mxCell>
        <mxCell id="FEtOOQ8i8liFEY_be7Ls-33" value="Projekt publizierten" style="rounded=0;whiteSpace=wrap;html=1;" parent="1" vertex="1">
          <mxGeometry x="610" y="480" width="120" height="60" as="geometry" />
        </mxCell>
        <mxCell id="FEtOOQ8i8liFEY_be7Ls-37" value="" style="edgeStyle=orthogonalEdgeStyle;rounded=0;orthogonalLoop=1;jettySize=auto;html=1;" parent="1" source="FEtOOQ8i8liFEY_be7Ls-34" target="FEtOOQ8i8liFEY_be7Ls-36" edge="1">
          <mxGeometry relative="1" as="geometry" />
        </mxCell>
        <mxCell id="FEtOOQ8i8liFEY_be7Ls-34" value="GISdata in Sitewalk laden" style="whiteSpace=wrap;html=1;rounded=0;" parent="1" vertex="1">
          <mxGeometry x="460" y="710" width="120" height="60" as="geometry" />
        </mxCell>
        <mxCell id="FEtOOQ8i8liFEY_be7Ls-39" value="" style="edgeStyle=orthogonalEdgeStyle;rounded=0;orthogonalLoop=1;jettySize=auto;html=1;" parent="1" source="FEtOOQ8i8liFEY_be7Ls-36" target="FEtOOQ8i8liFEY_be7Ls-38" edge="1">
          <mxGeometry relative="1" as="geometry" />
        </mxCell>
        <mxCell id="FEtOOQ8i8liFEY_be7Ls-36" value="gewünschte strassenabschnitt wählen und beurteilen" style="whiteSpace=wrap;html=1;rounded=0;" parent="1" vertex="1">
          <mxGeometry x="660" y="710" width="120" height="60" as="geometry" />
        </mxCell>
        <mxCell id="FEtOOQ8i8liFEY_be7Ls-41" value="" style="edgeStyle=orthogonalEdgeStyle;rounded=0;orthogonalLoop=1;jettySize=auto;html=1;" parent="1" source="FEtOOQ8i8liFEY_be7Ls-38" target="FEtOOQ8i8liFEY_be7Ls-40" edge="1">
          <mxGeometry relative="1" as="geometry" />
        </mxCell>
        <mxCell id="FEtOOQ8i8liFEY_be7Ls-38" value="formular ausfüllen" style="whiteSpace=wrap;html=1;rounded=0;" parent="1" vertex="1">
          <mxGeometry x="660" y="850" width="120" height="60" as="geometry" />
        </mxCell>
        <mxCell id="FEtOOQ8i8liFEY_be7Ls-43" value="" style="edgeStyle=orthogonalEdgeStyle;rounded=0;orthogonalLoop=1;jettySize=auto;html=1;" parent="1" source="FEtOOQ8i8liFEY_be7Ls-40" target="FEtOOQ8i8liFEY_be7Ls-42" edge="1">
          <mxGeometry relative="1" as="geometry" />
        </mxCell>
        <mxCell id="FEtOOQ8i8liFEY_be7Ls-40" value="formular absenden" style="whiteSpace=wrap;html=1;rounded=0;" parent="1" vertex="1">
          <mxGeometry x="660" y="990" width="120" height="60" as="geometry" />
        </mxCell>
        <mxCell id="FEtOOQ8i8liFEY_be7Ls-45" value="" style="edgeStyle=orthogonalEdgeStyle;rounded=0;orthogonalLoop=1;jettySize=auto;html=1;" parent="1" source="FEtOOQ8i8liFEY_be7Ls-42" target="FEtOOQ8i8liFEY_be7Ls-44" edge="1">
          <mxGeometry relative="1" as="geometry" />
        </mxCell>
        <mxCell id="FEtOOQ8i8liFEY_be7Ls-42" value="formular wird in db gespeichert" style="whiteSpace=wrap;html=1;rounded=0;" parent="1" vertex="1">
          <mxGeometry x="460" y="990" width="120" height="60" as="geometry" />
        </mxCell>
        <mxCell id="FEtOOQ8i8liFEY_be7Ls-44" value="db aktualisiert GIS" style="whiteSpace=wrap;html=1;rounded=0;" parent="1" vertex="1">
          <mxGeometry x="260" y="990" width="120" height="60" as="geometry" />
        </mxCell>
        <mxCell id="geXtdiIoarMpO1agwRRF-21" value="" style="edgeStyle=orthogonalEdgeStyle;rounded=0;orthogonalLoop=1;jettySize=auto;html=1;" edge="1" parent="1" source="geXtdiIoarMpO1agwRRF-6" target="geXtdiIoarMpO1agwRRF-20">
          <mxGeometry relative="1" as="geometry" />
        </mxCell>
        <mxCell id="geXtdiIoarMpO1agwRRF-6" value="SiteWalk verarbeitung starten" style="whiteSpace=wrap;html=1;rounded=0;" vertex="1" parent="1">
          <mxGeometry x="370" y="1210" width="120" height="60" as="geometry" />
        </mxCell>
        <mxCell id="geXtdiIoarMpO1agwRRF-10" value="" style="edgeStyle=orthogonalEdgeStyle;rounded=0;orthogonalLoop=1;jettySize=auto;html=1;" edge="1" parent="1" source="geXtdiIoarMpO1agwRRF-8" target="geXtdiIoarMpO1agwRRF-6">
          <mxGeometry relative="1" as="geometry" />
        </mxCell>
        <mxCell id="geXtdiIoarMpO1agwRRF-14" value="" style="edgeStyle=orthogonalEdgeStyle;rounded=0;orthogonalLoop=1;jettySize=auto;html=1;" edge="1" parent="1" source="geXtdiIoarMpO1agwRRF-8" target="geXtdiIoarMpO1agwRRF-13">
          <mxGeometry relative="1" as="geometry" />
        </mxCell>
        <mxCell id="geXtdiIoarMpO1agwRRF-8" value="GIS verbunden" style="rhombus;whiteSpace=wrap;html=1;" vertex="1" parent="1">
          <mxGeometry x="220" y="1200" width="80" height="80" as="geometry" />
        </mxCell>
        <mxCell id="geXtdiIoarMpO1agwRRF-26" value="" style="edgeStyle=orthogonalEdgeStyle;rounded=0;orthogonalLoop=1;jettySize=auto;html=1;" edge="1" parent="1" source="geXtdiIoarMpO1agwRRF-12" target="geXtdiIoarMpO1agwRRF-25">
          <mxGeometry relative="1" as="geometry" />
        </mxCell>
        <mxCell id="geXtdiIoarMpO1agwRRF-12" value="SiteWalk mit Dalux App aufnehmen" style="ellipse;whiteSpace=wrap;html=1;" vertex="1" parent="1">
          <mxGeometry x="-660" y="1200" width="120" height="80" as="geometry" />
        </mxCell>
        <mxCell id="geXtdiIoarMpO1agwRRF-15" style="edgeStyle=orthogonalEdgeStyle;rounded=0;orthogonalLoop=1;jettySize=auto;html=1;entryX=0.5;entryY=1;entryDx=0;entryDy=0;" edge="1" parent="1" source="geXtdiIoarMpO1agwRRF-13" target="geXtdiIoarMpO1agwRRF-6">
          <mxGeometry relative="1" as="geometry" />
        </mxCell>
        <mxCell id="geXtdiIoarMpO1agwRRF-13" value="GIS Verbindung herstellen" style="whiteSpace=wrap;html=1;" vertex="1" parent="1">
          <mxGeometry x="200" y="1370" width="120" height="60" as="geometry" />
        </mxCell>
        <mxCell id="geXtdiIoarMpO1agwRRF-16" value="ja" style="text;html=1;align=center;verticalAlign=middle;whiteSpace=wrap;rounded=0;" vertex="1" parent="1">
          <mxGeometry x="310" y="1210" width="60" height="30" as="geometry" />
        </mxCell>
        <mxCell id="geXtdiIoarMpO1agwRRF-17" value="nein" style="text;html=1;align=center;verticalAlign=middle;whiteSpace=wrap;rounded=0;" vertex="1" parent="1">
          <mxGeometry x="260" y="1330" width="60" height="30" as="geometry" />
        </mxCell>
        <mxCell id="geXtdiIoarMpO1agwRRF-40" value="" style="edgeStyle=orthogonalEdgeStyle;rounded=0;orthogonalLoop=1;jettySize=auto;html=1;" edge="1" parent="1" source="geXtdiIoarMpO1agwRRF-18" target="geXtdiIoarMpO1agwRRF-39">
          <mxGeometry relative="1" as="geometry" />
        </mxCell>
        <mxCell id="geXtdiIoarMpO1agwRRF-18" value="GPS Daten für Mapping mit GIS Daten verwenden" style="whiteSpace=wrap;html=1;rounded=0;" vertex="1" parent="1">
          <mxGeometry x="680" y="1340" width="120" height="60" as="geometry" />
        </mxCell>
        <mxCell id="geXtdiIoarMpO1agwRRF-22" style="edgeStyle=orthogonalEdgeStyle;rounded=0;orthogonalLoop=1;jettySize=auto;html=1;exitX=1;exitY=0.5;exitDx=0;exitDy=0;entryX=0.5;entryY=0;entryDx=0;entryDy=0;" edge="1" parent="1" source="geXtdiIoarMpO1agwRRF-20" target="geXtdiIoarMpO1agwRRF-18">
          <mxGeometry relative="1" as="geometry" />
        </mxCell>
        <mxCell id="geXtdiIoarMpO1agwRRF-24" value="" style="edgeStyle=orthogonalEdgeStyle;rounded=0;orthogonalLoop=1;jettySize=auto;html=1;" edge="1" parent="1" source="geXtdiIoarMpO1agwRRF-20" target="geXtdiIoarMpO1agwRRF-23">
          <mxGeometry relative="1" as="geometry" />
        </mxCell>
        <mxCell id="geXtdiIoarMpO1agwRRF-20" value="GPS-Daten vorhanden" style="rhombus;whiteSpace=wrap;html=1;rounded=0;" vertex="1" parent="1">
          <mxGeometry x="560" y="1200" width="80" height="80" as="geometry" />
        </mxCell>
        <mxCell id="geXtdiIoarMpO1agwRRF-46" value="" style="edgeStyle=orthogonalEdgeStyle;rounded=0;orthogonalLoop=1;jettySize=auto;html=1;entryX=0;entryY=0.5;entryDx=0;entryDy=0;exitX=0.5;exitY=1;exitDx=0;exitDy=0;" edge="1" parent="1" source="geXtdiIoarMpO1agwRRF-23" target="geXtdiIoarMpO1agwRRF-41">
          <mxGeometry relative="1" as="geometry">
            <mxPoint x="600" y="1620" as="targetPoint" />
          </mxGeometry>
        </mxCell>
        <mxCell id="geXtdiIoarMpO1agwRRF-23" value="SiteWalk ohne Mapping verarbeiten" style="whiteSpace=wrap;html=1;rounded=0;" vertex="1" parent="1">
          <mxGeometry x="540" y="1340" width="120" height="60" as="geometry" />
        </mxCell>
        <mxCell id="geXtdiIoarMpO1agwRRF-28" value="" style="edgeStyle=orthogonalEdgeStyle;rounded=0;orthogonalLoop=1;jettySize=auto;html=1;entryX=0;entryY=0.5;entryDx=0;entryDy=0;" edge="1" parent="1" source="geXtdiIoarMpO1agwRRF-25" target="geXtdiIoarMpO1agwRRF-31">
          <mxGeometry relative="1" as="geometry">
            <mxPoint x="-330" y="1240" as="targetPoint" />
          </mxGeometry>
        </mxCell>
        <mxCell id="geXtdiIoarMpO1agwRRF-25" value="ungefähren Startpunkt angeben" style="whiteSpace=wrap;html=1;" vertex="1" parent="1">
          <mxGeometry x="-500" y="1210" width="120" height="60" as="geometry" />
        </mxCell>
        <mxCell id="geXtdiIoarMpO1agwRRF-35" value="" style="edgeStyle=orthogonalEdgeStyle;rounded=0;orthogonalLoop=1;jettySize=auto;html=1;" edge="1" parent="1" source="geXtdiIoarMpO1agwRRF-31" target="geXtdiIoarMpO1agwRRF-34">
          <mxGeometry relative="1" as="geometry" />
        </mxCell>
        <mxCell id="geXtdiIoarMpO1agwRRF-31" value="SiteWalk durchführen" style="whiteSpace=wrap;html=1;" vertex="1" parent="1">
          <mxGeometry x="-300" y="1210" width="120" height="60" as="geometry" />
        </mxCell>
        <mxCell id="geXtdiIoarMpO1agwRRF-36" style="edgeStyle=orthogonalEdgeStyle;rounded=0;orthogonalLoop=1;jettySize=auto;html=1;" edge="1" parent="1" source="geXtdiIoarMpO1agwRRF-34" target="geXtdiIoarMpO1agwRRF-8">
          <mxGeometry relative="1" as="geometry" />
        </mxCell>
        <mxCell id="geXtdiIoarMpO1agwRRF-34" value="ungefähren Endpunkt angeben" style="whiteSpace=wrap;html=1;" vertex="1" parent="1">
          <mxGeometry x="-100" y="1210" width="120" height="60" as="geometry" />
        </mxCell>
        <mxCell id="geXtdiIoarMpO1agwRRF-37" value="ja" style="text;html=1;align=center;verticalAlign=middle;whiteSpace=wrap;rounded=0;" vertex="1" parent="1">
          <mxGeometry x="670" y="1210" width="60" height="30" as="geometry" />
        </mxCell>
        <mxCell id="geXtdiIoarMpO1agwRRF-38" value="nein" style="text;html=1;align=center;verticalAlign=middle;whiteSpace=wrap;rounded=0;" vertex="1" parent="1">
          <mxGeometry x="540" y="1300" width="60" height="30" as="geometry" />
        </mxCell>
        <mxCell id="geXtdiIoarMpO1agwRRF-42" value="" style="edgeStyle=orthogonalEdgeStyle;rounded=0;orthogonalLoop=1;jettySize=auto;html=1;" edge="1" parent="1" source="geXtdiIoarMpO1agwRRF-39" target="geXtdiIoarMpO1agwRRF-41">
          <mxGeometry relative="1" as="geometry" />
        </mxCell>
        <mxCell id="geXtdiIoarMpO1agwRRF-39" value="SiteWalk verarbeiten" style="whiteSpace=wrap;html=1;rounded=0;" vertex="1" parent="1">
          <mxGeometry x="680" y="1480" width="120" height="60" as="geometry" />
        </mxCell>
        <mxCell id="geXtdiIoarMpO1agwRRF-44" value="" style="edgeStyle=orthogonalEdgeStyle;rounded=0;orthogonalLoop=1;jettySize=auto;html=1;" edge="1" parent="1" source="geXtdiIoarMpO1agwRRF-41" target="geXtdiIoarMpO1agwRRF-43">
          <mxGeometry relative="1" as="geometry" />
        </mxCell>
        <mxCell id="geXtdiIoarMpO1agwRRF-41" value="SiteWalk öffnen" style="whiteSpace=wrap;html=1;rounded=0;" vertex="1" parent="1">
          <mxGeometry x="680" y="1620" width="120" height="60" as="geometry" />
        </mxCell>
        <mxCell id="geXtdiIoarMpO1agwRRF-51" value="" style="edgeStyle=orthogonalEdgeStyle;rounded=0;orthogonalLoop=1;jettySize=auto;html=1;" edge="1" parent="1" source="geXtdiIoarMpO1agwRRF-43" target="geXtdiIoarMpO1agwRRF-50">
          <mxGeometry relative="1" as="geometry" />
        </mxCell>
        <mxCell id="geXtdiIoarMpO1agwRRF-43" value="Splitscreen&amp;nbsp;" style="whiteSpace=wrap;html=1;rounded=0;" vertex="1" parent="1">
          <mxGeometry x="680" y="1760" width="120" height="60" as="geometry" />
        </mxCell>
        <mxCell id="geXtdiIoarMpO1agwRRF-53" value="" style="edgeStyle=orthogonalEdgeStyle;rounded=0;orthogonalLoop=1;jettySize=auto;html=1;" edge="1" parent="1" source="geXtdiIoarMpO1agwRRF-50" target="geXtdiIoarMpO1agwRRF-52">
          <mxGeometry relative="1" as="geometry" />
        </mxCell>
        <mxCell id="geXtdiIoarMpO1agwRRF-50" value="Gewünschten Strassenabschnit mithilfe der Bilder beurteilen" style="whiteSpace=wrap;html=1;rounded=0;" vertex="1" parent="1">
          <mxGeometry x="480" y="1760" width="120" height="60" as="geometry" />
        </mxCell>
        <mxCell id="geXtdiIoarMpO1agwRRF-55" value="" style="edgeStyle=orthogonalEdgeStyle;rounded=0;orthogonalLoop=1;jettySize=auto;html=1;" edge="1" parent="1" source="geXtdiIoarMpO1agwRRF-52" target="geXtdiIoarMpO1agwRRF-56">
          <mxGeometry relative="1" as="geometry">
            <mxPoint x="200" y="1790" as="targetPoint" />
          </mxGeometry>
        </mxCell>
        <mxCell id="geXtdiIoarMpO1agwRRF-52" value="Formular öffnen" style="whiteSpace=wrap;html=1;rounded=0;" vertex="1" parent="1">
          <mxGeometry x="280" y="1760" width="120" height="60" as="geometry" />
        </mxCell>
        <mxCell id="geXtdiIoarMpO1agwRRF-58" value="" style="edgeStyle=orthogonalEdgeStyle;rounded=0;orthogonalLoop=1;jettySize=auto;html=1;" edge="1" parent="1" source="geXtdiIoarMpO1agwRRF-56" target="geXtdiIoarMpO1agwRRF-57">
          <mxGeometry relative="1" as="geometry" />
        </mxCell>
        <mxCell id="geXtdiIoarMpO1agwRRF-56" value="Strassensegmen wird direkt verlinkt" style="shape=parallelogram;perimeter=parallelogramPerimeter;whiteSpace=wrap;html=1;fixedSize=1;" vertex="1" parent="1">
          <mxGeometry x="140" y="1760" width="120" height="60" as="geometry" />
        </mxCell>
        <mxCell id="geXtdiIoarMpO1agwRRF-60" value="" style="edgeStyle=orthogonalEdgeStyle;rounded=0;orthogonalLoop=1;jettySize=auto;html=1;" edge="1" parent="1" source="geXtdiIoarMpO1agwRRF-57" target="geXtdiIoarMpO1agwRRF-61">
          <mxGeometry relative="1" as="geometry">
            <mxPoint y="1900" as="targetPoint" />
          </mxGeometry>
        </mxCell>
        <mxCell id="geXtdiIoarMpO1agwRRF-57" value="Formular ausfülle" style="whiteSpace=wrap;html=1;" vertex="1" parent="1">
          <mxGeometry x="-60" y="1760" width="120" height="60" as="geometry" />
        </mxCell>
        <mxCell id="geXtdiIoarMpO1agwRRF-62" style="edgeStyle=orthogonalEdgeStyle;rounded=0;orthogonalLoop=1;jettySize=auto;html=1;entryX=0;entryY=0.5;entryDx=0;entryDy=0;exitX=0;exitY=0.5;exitDx=0;exitDy=0;" edge="1" parent="1" source="geXtdiIoarMpO1agwRRF-61" target="geXtdiIoarMpO1agwRRF-57">
          <mxGeometry relative="1" as="geometry" />
        </mxCell>
        <mxCell id="geXtdiIoarMpO1agwRRF-64" value="" style="edgeStyle=orthogonalEdgeStyle;rounded=0;orthogonalLoop=1;jettySize=auto;html=1;" edge="1" parent="1" source="geXtdiIoarMpO1agwRRF-61" target="geXtdiIoarMpO1agwRRF-63">
          <mxGeometry relative="1" as="geometry" />
        </mxCell>
        <mxCell id="geXtdiIoarMpO1agwRRF-61" value="Pflichtfelder ausgefüllt" style="rhombus;whiteSpace=wrap;html=1;" vertex="1" parent="1">
          <mxGeometry x="-40" y="1860" width="80" height="80" as="geometry" />
        </mxCell>
        <mxCell id="geXtdiIoarMpO1agwRRF-66" value="" style="edgeStyle=orthogonalEdgeStyle;rounded=0;orthogonalLoop=1;jettySize=auto;html=1;" edge="1" parent="1" source="geXtdiIoarMpO1agwRRF-63">
          <mxGeometry relative="1" as="geometry">
            <mxPoint x="160" y="2060" as="targetPoint" />
          </mxGeometry>
        </mxCell>
        <mxCell id="geXtdiIoarMpO1agwRRF-63" value="Formular absenden" style="whiteSpace=wrap;html=1;" vertex="1" parent="1">
          <mxGeometry x="-60" y="2030" width="120" height="60" as="geometry" />
        </mxCell>
        <mxCell id="geXtdiIoarMpO1agwRRF-68" style="edgeStyle=orthogonalEdgeStyle;rounded=0;orthogonalLoop=1;jettySize=auto;html=1;entryX=0.5;entryY=1;entryDx=0;entryDy=0;" edge="1" parent="1" source="geXtdiIoarMpO1agwRRF-67" target="geXtdiIoarMpO1agwRRF-50">
          <mxGeometry relative="1" as="geometry" />
        </mxCell>
        <mxCell id="geXtdiIoarMpO1agwRRF-70" value="" style="edgeStyle=orthogonalEdgeStyle;rounded=0;orthogonalLoop=1;jettySize=auto;html=1;" edge="1" parent="1" source="geXtdiIoarMpO1agwRRF-67">
          <mxGeometry relative="1" as="geometry">
            <mxPoint x="200" y="2190" as="targetPoint" />
          </mxGeometry>
        </mxCell>
        <mxCell id="geXtdiIoarMpO1agwRRF-67" value="alle erfasst" style="rhombus;whiteSpace=wrap;html=1;" vertex="1" parent="1">
          <mxGeometry x="160" y="2020" width="80" height="80" as="geometry" />
        </mxCell>
        <mxCell id="geXtdiIoarMpO1agwRRF-72" value="ja" style="text;html=1;align=center;verticalAlign=middle;whiteSpace=wrap;rounded=0;" vertex="1" parent="1">
          <mxGeometry x="210" y="2100" width="60" height="30" as="geometry" />
        </mxCell>
        <mxCell id="geXtdiIoarMpO1agwRRF-73" value="nein" style="text;html=1;align=center;verticalAlign=middle;whiteSpace=wrap;rounded=0;" vertex="1" parent="1">
          <mxGeometry x="250" y="2030" width="60" height="30" as="geometry" />
        </mxCell>
        <mxCell id="geXtdiIoarMpO1agwRRF-74" value="nein" style="text;html=1;align=center;verticalAlign=middle;whiteSpace=wrap;rounded=0;" vertex="1" parent="1">
          <mxGeometry x="-140" y="1870" width="60" height="30" as="geometry" />
        </mxCell>
        <mxCell id="geXtdiIoarMpO1agwRRF-75" value="ja" style="text;html=1;align=center;verticalAlign=middle;whiteSpace=wrap;rounded=0;" vertex="1" parent="1">
          <mxGeometry y="1940" width="60" height="30" as="geometry" />
        </mxCell>
        <mxCell id="geXtdiIoarMpO1agwRRF-77" style="edgeStyle=orthogonalEdgeStyle;rounded=0;orthogonalLoop=1;jettySize=auto;html=1;entryX=0;entryY=0.5;entryDx=0;entryDy=0;" edge="1" parent="1" source="geXtdiIoarMpO1agwRRF-76" target="FEtOOQ8i8liFEY_be7Ls-6">
          <mxGeometry relative="1" as="geometry" />
        </mxCell>
        <mxCell id="geXtdiIoarMpO1agwRRF-76" value="Dalux Projekt eröffnen" style="ellipse;whiteSpace=wrap;html=1;" vertex="1" parent="1">
          <mxGeometry x="-355" y="35" width="120" height="80" as="geometry" />
        </mxCell>
        <mxCell id="geXtdiIoarMpO1agwRRF-80" value="ja" style="text;html=1;align=center;verticalAlign=middle;whiteSpace=wrap;rounded=0;" vertex="1" parent="1">
          <mxGeometry x="620" y="250" width="60" height="30" as="geometry" />
        </mxCell>
        <mxCell id="geXtdiIoarMpO1agwRRF-81" value="nein" style="text;html=1;align=center;verticalAlign=middle;whiteSpace=wrap;rounded=0;" vertex="1" parent="1">
          <mxGeometry x="700" y="170" width="60" height="30" as="geometry" />
        </mxCell>
        <mxCell id="geXtdiIoarMpO1agwRRF-82" value="SiteWalk beenden" style="ellipse;whiteSpace=wrap;html=1;" vertex="1" parent="1">
          <mxGeometry x="140" y="2190" width="120" height="80" as="geometry" />
        </mxCell>
      </root>
    </mxGraphModel>
  </diagram>
</mxfile>
